# xmcd CD database file
#
# Track frame offsets:
#	150
#	9678
#	24406
#	39390
#	60085
#	73615
#	87594
#	99944
#	115362
#	128107
#	142098
#	154714
#	167790
#	179649
#	190889
#	204086
#	227029
#	241606
#	257225
#	270268
#
# Disc length: 3738 seconds
#
# Revision: 0
# Processed by: cddbd v1.5.1PL0 Copyright (c) Steve Scherf et al.
# Submitted via: CDex 1.51
#
DISCID=080e9814
DTITLE=Various Artist - Songs of World War II
DYEAR=2004
DGENRE=Jazz
TTITLE0=Glenn Miller and the Army Air Force Band - Over There
TTITLE1=Ray Ventura and Son Orchestra - We're Gonna Hand Out On The Washing On The Siegfried Line
TTITLE2=Tony Martin - The Last Time I Saw Paris
TTITLE3=Glenn Miller and the Army Air Force Band - St. Louis Blues March
TTITLE4=Bob Eberle and the Jimmy Dorsey Orchestra - The White Cliffs Of Dover
TTITLE5=Frank Sinatra and the Tommy Dorsey Orchestra - I'll Be Seeing You
TTITLE6=Spike Jones and The City Slickers - Der Führer's Face
TTITLE7=Marlene Dietrich - Lily Marlene
TTITLE8=Royal Air Force Dance Orchestra - Anchors Aweigh
TTITLE9=Bing Crosby - White Christmas
TTITLE10=The Andrews Sisters - Boogie-Woogie Bugle Boy
TTITLE11=Dooley Wilson - As Time Goes By
TTITLE12=Fats Waller and His Rhythm - Swing Out To Victory
TTITLE13=Germaine Sablon - Le Chant Des Partisans
TTITLE14=The Ink Spots - I'll Get By (As Long As I Have You)
TTITLE15=Glenn Miller and the Army Air Force Band - Poinciana
TTITLE16=Doris Day and the Les Brown Orchestra - Sentimental Journey
TTITLE17=Johnny Mercer - G.I. Jive
TTITLE18=The Andrews Sisters and Bing Crosby - Vict'ry Polka
TTITLE19=José Luccioni - Marche De La 2e D.B.
EXTD=YEAR: 2004
EXTT0=
EXTT1=
EXTT2=
EXTT3=
EXTT4=
EXTT5=
EXTT6=
EXTT7=
EXTT8=
EXTT9=
EXTT10=
EXTT11=
EXTT12=
EXTT13=
EXTT14=
EXTT15=
EXTT16=
EXTT17=
EXTT18=
EXTT19=
PLAYORDER=
